<mxfile host="app.diagrams.net" modified="2023-05-26T05:25:38.190Z" agent="Mozilla/5.0 (Macintosh; Intel Mac OS X 10_15_7) AppleWebKit/537.36 (KHTML, like Gecko) Chrome/112.0.0.0 Safari/537.36" etag="blvH75stiELCGEjsHaHm" version="21.3.4" type="github">
  <diagram name="Page-1" id="4UJHBaJ6RTHY6Vmb3l2O">
    <mxGraphModel dx="1207" dy="776" grid="1" gridSize="10" guides="1" tooltips="1" connect="1" arrows="1" fold="1" page="1" pageScale="1" pageWidth="850" pageHeight="1100" math="0" shadow="0">
      <root>
        <mxCell id="0" />
        <mxCell id="1" parent="0" />
        <mxCell id="y2LBphgGsTv71cCOPTYm-3" value="" style="edgeStyle=orthogonalEdgeStyle;rounded=0;orthogonalLoop=1;jettySize=auto;html=1;" edge="1" parent="1" source="y2LBphgGsTv71cCOPTYm-1" target="y2LBphgGsTv71cCOPTYm-2">
          <mxGeometry relative="1" as="geometry" />
        </mxCell>
        <mxCell id="y2LBphgGsTv71cCOPTYm-1" value="User/Browser/App" style="rounded=1;whiteSpace=wrap;html=1;arcSize=45;" vertex="1" parent="1">
          <mxGeometry x="240" y="150" width="130" height="60" as="geometry" />
        </mxCell>
        <mxCell id="y2LBphgGsTv71cCOPTYm-5" value="" style="edgeStyle=orthogonalEdgeStyle;rounded=0;orthogonalLoop=1;jettySize=auto;html=1;" edge="1" parent="1" source="y2LBphgGsTv71cCOPTYm-2">
          <mxGeometry relative="1" as="geometry">
            <mxPoint x="480" y="290" as="targetPoint" />
          </mxGeometry>
        </mxCell>
        <mxCell id="y2LBphgGsTv71cCOPTYm-2" value="LB" style="rounded=1;whiteSpace=wrap;html=1;arcSize=45;" vertex="1" parent="1">
          <mxGeometry x="450" y="150" width="60" height="60" as="geometry" />
        </mxCell>
      </root>
    </mxGraphModel>
  </diagram>
</mxfile>
